HIERARCHY
ROOT Hips
{
    OFFSET 0.000000 0.000000 0.000000
    CHANNELS 6 Xposition Yposition Zposition Zrotation Xrotation Yrotation
    JOINT Spine
    {
        OFFSET -0.000000 14.517291 0.000000
        CHANNELS 3 Zrotation Xrotation Yrotation
        JOINT Spine1
        {
            OFFSET -0.000000 37.558300 0.000000
            CHANNELS 3 Zrotation Xrotation Yrotation
            JOINT Neck
            {
                OFFSET -0.000000 37.404057 3.400369
                CHANNELS 3 Zrotation Xrotation Yrotation
                JOINT Head
                {
                    OFFSET -0.000000 24.785618 -3.540803
                    CHANNELS 3 Zrotation Xrotation Yrotation
                    End Site
                    {
                        OFFSET -0.000000 35.408028 0.000000
                    }
                }
            }
            JOINT LeftShoulder
            {
                OFFSET 6.992933 33.973492 -0.192664
                CHANNELS 3 Zrotation Xrotation Yrotation
                JOINT LeftArm
                {
                    OFFSET 21.527611 0.000000 0.000000
                    CHANNELS 3 Zrotation Xrotation Yrotation
                    JOINT LeftForeArm
                    {
                        OFFSET 56.353916 0.000000 0.000000
                        CHANNELS 3 Zrotation Xrotation Yrotation
                        JOINT LeftHand
                        {
                            OFFSET 47.774071 0.000000 0.000000
                            CHANNELS 3 Zrotation Xrotation Yrotation
                            End Site
                            {
                                OFFSET 26.556021 0.000000 0.000000
                            }
                        }
                    }
                }
            }
            JOINT RightShoulder
            {
                OFFSET -7.065357 33.973492 -0.192664
                CHANNELS 3 Zrotation Xrotation Yrotation
                JOINT RightArm
                {
                    OFFSET -21.527611 0.000000 0.000000
                    CHANNELS 3 Zrotation Xrotation Yrotation
                    JOINT RightForeArm
                    {
                        OFFSET -56.353916 0.000000 0.000000
                        CHANNELS 3 Zrotation Xrotation Yrotation
                        JOINT RightHand
                        {
                            OFFSET -47.774071 0.000000 0.000000
                            CHANNELS 3 Zrotation Xrotation Yrotation
                            End Site
                            {
                                OFFSET -26.556021 0.000000 0.000000
                            }
                        }
                    }
                }
            }
        }
    }
    JOINT LeftUpLeg
    {
        OFFSET 17.704014 0.000000 0.000000
        CHANNELS 3 Zrotation Xrotation Yrotation
        JOINT LeftLeg
        {
            OFFSET -0.000000 -81.181816 0.000000
            CHANNELS 3 Zrotation Xrotation Yrotation
            JOINT LeftFoot
            {
                OFFSET -0.000000 -62.821102 0.000000
                CHANNELS 3 Zrotation Xrotation Yrotation
                JOINT LeftToeBase
                {
                    OFFSET -0.000000 -11.507608 26.556021
                    CHANNELS 3 Zrotation Xrotation Yrotation
                    End Site
                    {
                        OFFSET -0.000000 0.000000 7.081605
                    }
                }
            }
        }
    }
    JOINT RightUpLeg
    {
        OFFSET -17.704014 0.000000 0.000000
        CHANNELS 3 Zrotation Xrotation Yrotation
        JOINT RightLeg
        {
            OFFSET -0.000000 -81.181816 0.000000
            CHANNELS 3 Zrotation Xrotation Yrotation
            JOINT RightFoot
            {
                OFFSET -0.000000 -62.821102 0.000000
                CHANNELS 3 Zrotation Xrotation Yrotation
                JOINT RightToeBase
                {
                    OFFSET -0.000000 -11.507608 26.556021
                    CHANNELS 3 Zrotation Xrotation Yrotation
                    End Site
                    {
                        OFFSET -0.000000 0.000000 7.081605
                    }
                }
            }
        }
    }
}
MOTION
Frames:    9
Frame Time:    0.008333
7.572143    149.663040    -14.316646    0.234987    -1.286571    -36.495068    2.591689    2.844312    1.965587    -1.535630    0.509648    0.682728    16.337242    6.476147    14.859438    -10.568960    -2.604632    12.263361    -0.340401    8.620112    -11.549088    -35.665657    7.664812    -36.474060    32.955944    -43.203766    -48.620670    -18.693409    -26.142426    -32.453373    -4.479439    6.367216    -2.271997    35.655869    11.227337    75.128616    5.415499    -9.011903    94.938591    11.605249    -12.863059    19.353504    23.272415    -25.659084    3.799542    -25.999203    40.211060    -2.378625    -4.162497    -14.629433    39.373722    0.000000    0.000000    0.000000    -19.190493    -10.843228    -10.278936    8.323726    46.416348    -3.800234    13.234014    -27.188038    4.304559    0.000000    0.000000    0.000000    
7.689623    149.644989    -14.433822    0.249441    -1.251634    -36.563560    2.590121    2.863577    1.951282    -1.546689    0.528806    0.678407    16.370644    6.501148    14.906390    -10.603892    -2.612614    12.306712    -0.325611    8.632777    -11.532591    -35.683334    7.671769    -36.516571    33.070656    -43.255310    -48.550846    -18.715078    -26.172239    -32.448158    -4.461973    6.365417    -2.260068    35.658684    11.240302    75.104538    5.446972    -8.974788    94.936264    11.586823    -12.861843    19.363987    23.292917    -25.711817    3.846561    -25.984325    40.184685    -2.362272    -4.182627    -14.682264    39.427517    0.000000    0.000000    0.000000    -19.172497    -10.994008    -10.235238    8.355088    46.460522    -3.810297    13.184700    -27.247475    4.157244    0.000000    0.000000    0.000000    
7.821795    149.628708    -14.555505    0.298044    -1.222650    -36.647602    2.536002    2.905917    1.967180    -1.527347    0.491835    0.682989    16.425241    6.553177    14.935342    -10.687356    -2.635369    12.324144    -0.320587    8.650298    -11.547588    -35.728172    7.631354    -36.530350    33.113636    -43.256016    -48.550728    -18.747938    -26.141996    -32.466873    -4.437850    6.380770    -2.273658    35.641766    11.236879    75.082619    5.489863    -8.921850    94.942497    11.570613    -12.860322    19.346926    23.292454    -25.763514    3.905376    -25.984034    40.129955    -2.320488    -4.233164    -14.746851    39.487190    0.000000    0.000000    0.000000    -19.197496    -11.125443    -10.143922    8.429238    46.513447    -3.783435    13.087796    -27.422550    3.908456    0.000000    0.000000    0.000000    
7.949334    149.615372    -14.670288    0.342329    -1.211664    -36.735264    2.485065    2.943322    1.972492    -1.517916    0.481554    0.684470    16.451263    6.608600    14.973540    -10.736794    -2.673100    12.358553    -0.319375    8.656118    -11.544627    -35.740005    7.622999    -36.533054    33.167648    -43.265087    -48.519207    -18.748627    -26.134977    -32.492550    -4.416472    6.393137    -2.273050    35.643051    11.218316    75.078003    5.529570    -8.850018    94.926605    11.568239    -12.834157    19.311172    23.288752    -25.789040    3.984567    -25.969292    40.070747    -2.322208    -4.299916    -14.824027    39.565773    0.000000    0.000000    0.000000    -19.205624    -11.280984    -10.075234    8.479493    46.547161    -3.707023    12.882734    -27.531958    3.453164    0.000000    0.000000    0.000000    
8.068430    149.608597    -14.777191    0.389996    -1.210554    -36.832165    2.409103    2.946399    1.974462    -1.474716    0.530864    0.684921    16.472244    6.656623    15.022822    -10.816909    -2.723768    12.397692    -0.338430    8.641561    -11.525606    -35.741119    7.630296    -36.529987    33.235191    -43.278526    -48.481323    -18.707117    -26.147621    -32.474968    -4.441121    6.383567    -2.275653    35.640972    11.256486    75.107323    5.521220    -8.860131    94.886917    11.629900    -12.817258    19.346401    23.290115    -25.790009    4.122958    -25.941175    40.020733    -2.338462    -4.363808    -14.902933    39.624725    0.000000    0.000000    0.000000    -19.211933    -11.422824    -9.990081    8.514832    46.570156    -3.648899    12.623378    -27.654001    3.136232    0.000000    0.000000    0.000000    
8.182475    149.598663    -14.890036    0.437022    -1.204480    -36.956223    2.351303    2.951564    1.987263    -1.462945    0.586595    0.689281    16.508545    6.700201    15.087497    -10.913265    -2.795049    12.446239    -0.337761    8.622026    -11.486928    -35.720688    7.661636    -36.515751    33.305660    -43.311275    -48.447704    -18.677048    -26.179121    -32.452816    -4.448367    6.375455    -2.257500    35.682232    11.237395    75.139519    5.571030    -8.774156    94.864441    11.609139    -12.788641    19.327408    23.335094    -25.765680    4.316556    -25.944948    39.955978    -2.365220    -4.449353    -15.012194    39.695099    0.000000    0.000000    0.000000    -19.192364    -11.590685    -9.900810    8.503923    46.605183    -3.559831    12.282432    -27.764849    2.778903    0.000000    0.000000    0.000000    
8.298934    149.586029    -14.990965    0.483346    -1.217183    -37.084263    2.276006    2.980780    2.020949    -1.440443    0.622532    0.700448    16.557798    6.707376    15.138052    -11.008104    -2.807320    12.479020    -0.329702    8.592547    -11.478279    -35.736725    7.683298    -36.478142    33.341938    -43.327068    -48.456940    -18.657379    -26.189486    -32.421768    -4.439500    6.353374    -2.268698    35.628059    11.284747    75.172005    5.540148    -8.820321    94.864929    11.604549    -12.803343    19.314049    23.371914    -25.723444    4.560400    -25.933004    39.914291    -2.391541    -4.543317    -15.132687    39.727757    0.000000    0.000000    0.000000    -19.177011    -11.751294    -9.781890    8.481603    46.653954    -3.487446    11.961163    -27.862932    2.398153    0.000000    0.000000    0.000000    
8.398262    149.584961    -15.115354    0.521864    -1.192854    -37.198315    2.225621    2.996477    2.035454    -1.423723    0.634648    0.704946    16.598135    6.750549    15.194786    -11.095114    -2.865019    12.521556    -0.320785    8.579515    -11.465649    -35.730423    7.690943    -36.421345    33.357353    -43.342903    -48.471973    -18.640253    -26.204926    -32.401844    -4.429751    6.325047    -2.257255    35.597954    11.349038    75.188156    5.526228    -8.878027    94.885323    11.630049    -12.844269    19.303110    23.462189    -25.699060    4.848206    -25.912125    39.859325    -2.436574    -4.666769    -15.242329    39.723118    0.000000    0.000000    0.000000    -19.105061    -11.942782    -9.680087    8.391687    46.713203    -3.388057    11.638008    -27.938120    2.005433    0.000000    0.000000    0.000000    
8.496447    149.582260    -15.246131    0.558035    -1.162443    -37.314602    2.155555    3.025360    2.056086    -1.356429    0.622659    0.710842    16.595654    6.813080    15.238807    -11.168032    -2.957777    12.556478    -0.333696    8.573503    -11.449860    -35.708328    7.720546    -36.363785    33.382420    -43.383862    -48.476696    -18.656801    -26.234680    -32.423981    -4.459310    6.319027    -2.250077    35.656448    11.339265    75.205933    5.540038    -8.789035    94.897865    11.567403    -12.791196    19.223700    23.568758    -25.680355    5.166306    -25.900566    39.827991    -2.454347    -4.807117    -15.361382    39.679550    0.000000    0.000000    0.000000    -19.027992    -12.140672    -9.536015    8.356638    46.771938    -3.397818    11.271342    -27.995905    1.556842    0.000000    0.000000    0.000000    
